<?xml version="1.0" encoding="utf-8"?>
<!-- Generator: Adobe Illustrator 18.1.1, SVG Export Plug-In . SVG Version: 6.00 Build 0)  -->
<svg version="1.1" id="logo_Bg" xmlns="http://www.w3.org/2000/svg" xmlns:xlink="http://www.w3.org/1999/xlink" x="0px" y="0px"
	 viewBox="0 0 174 24.6" enable-background="new 0 0 174 24.6" xml:space="preserve">
<g>
	<g>
		<g>
			<polygon fill="#D40511" points="0,19.6 23.5,19.6 22.2,21.4 0,21.4 0,19.6 			"/>
			<polygon fill="#D40511" points="0,16.4 25.9,16.4 24.6,18.1 0,18.1 0,16.4 			"/>
			<polygon fill="#D40511" points="0,22.9 21.1,22.9 19.9,24.6 0,24.6 0,22.9 			"/>
		</g>
		<g>
			<polygon fill="#D40511" points="174,21.4 150.6,21.4 151.9,19.6 174,19.6 174,21.4 			"/>
			<polygon fill="#D40511" points="174,24.6 148.2,24.6 149.5,22.9 174,22.9 174,24.6 			"/>
			<polygon fill="#D40511" points="154.2,16.4 174,16.4 174,18.1 153,18.1 154.2,16.4 			"/>
		</g>
	</g>
	<g>
		<path fill="#D40511" d="M22.8,24.6L34,9.4c0,0,12.4,0,13.9,0c1.5,0,1.5,0.6,0.8,1.6c-0.8,1-2.1,2.8-2.8,3.8
			c-0.4,0.5-1.1,1.5,1.3,1.5c2.5,0,18.6,0,18.6,0C64,18.5,59,24.6,50,24.6C42.7,24.6,22.8,24.6,22.8,24.6L22.8,24.6z"/>
		<path fill="#D40511" d="M86.7,16.4l-6.1,8.2h-16c0,0,6.1-8.2,6.1-8.2L86.7,16.4L86.7,16.4z"/>
		<path fill="#D40511" d="M109.8,16.4l-6.1,8.2h-16c0,0,6.1-8.2,6.1-8.2H109.8L109.8,16.4z"/>
		<path fill="#D40511" d="M115,16.4c0,0-1.2,1.6-1.7,2.4c-2,2.7-0.2,5.9,6.3,5.9c7.6,0,25.6,0,25.6,0l6.1-8.2H115L115,16.4z"/>
	</g>
	<g>
		<path fill="#D40511" d="M30.6,0L25,7.6c0,0,28.8,0,30.3,0c1.5,0,1.5,0.6,0.8,1.6c-0.8,1-2,2.8-2.8,3.9c-0.4,0.5-1.1,1.5,1.3,1.5
			c2.5,0,12.4,0,12.4,0s2-2.7,3.7-5C72.9,6.4,70.8,0,62.7,0C55.4,0,30.6,0,30.6,0L30.6,0z"/>
		<polygon fill="#D40511" points="111.2,14.5 72.1,14.5 82.8,0 98.8,0 92.7,8.3 99.8,8.3 105.9,0 121.9,0 111.2,14.5 		"/>
		<path fill="#D40511" d="M144,0l-10.7,14.5h-16.9c0,0,10.7-14.5,10.7-14.5H144L144,0z"/>
	</g>
</g>
</svg>
